<svg xmlns="http://www.w3.org/2000/svg" viewBox="0 0 410 404"><defs><linearGradient id="a" x1="6.3%" x2="78.3%" y1="24.2%" y2="81.4%"><stop offset="0%" stop-color="#41D1FF"/><stop offset="100%" stop-color="#BD34FE"/></linearGradient><linearGradient id="b" x1="43.7%" x2="50.4%" y1="12.4%" y2="89.4%"><stop offset="0%" stop-color="#FFEA83"/><stop offset="8.3%" stop-color="#FFDD35"/><stop offset="100%" stop-color="#FFA800"/></linearGradient></defs><path fill="url(#a)" d="M399.6 59.7 215.6 388.4c-6.8 12.3-24.5 12.4-31.4.2L9.7 59.8c-7.2-12.5 2-28.1 16-26.2l179.7 24.5a18.6 18.6 0 0 0 4.6 0l173.6-24.3c14-2 23.2 13.6 16 26.2Z"/><path fill="url(#b)" d="M292.6 1.2 156.3 23.7c-4.5.7-7.8 4.6-7.6 9.2l7.4 153.1c.3 6.5 7.7 10.3 13.5 7l37.5-21.6a9.1 9.1 0 0 1 9.2 0l86 49.5c5.9 3.4 13.3-.5 13.5-7l4.9-214.8c.2-6-5-10.6-11.1-9.6Z"/></svg>
